# xmcd
#
# Track frame offsets: 
#        182
#        10987
#        23987
#        35562
#        51875
#        63662
#        78625
#        90625
#        100937
#        111000
#        122600
#        131837
#
# Disc length: 2076 seconds
#
# Revision: 1
# Processed by: cddbd v1.5.2PL0 Copyright (c) Steve Scherf et al.
# Submitted via: ExactAudioCopy v0.99pb5
#
DISCID=a1081a0c
DTITLE=Johnnie Pate - Johnnie Pate at the Blue Note
DYEAR=1956
DGENRE=Jazz
TTITLE0=Dancing on the Ceiling
TTITLE1=What a Difference a Day Made
TTITLE2=It Might as Well Be Spring
TTITLE3=Falling in Love With Love
TTITLE4=All the Time
TTITLE5=Old Devil Moon
TTITLE6=I Surrender Dear
TTITLE7=Yvonne
TTITLE8=Tea for Two
TTITLE9=Pennies from Heaven
TTITLE10=Carmen's Chaser
TTITLE11=Slaughter on 10th Avenue
EXTD=YEAR: 1956
EXTT0=
EXTT1=
EXTT2=
EXTT3=
EXTT4=
EXTT5=
EXTT6=
EXTT7=
EXTT8=
EXTT9=
EXTT10=
EXTT11=
PLAYORDER=
